<?xml version="1.0" encoding="UTF-8"?>
<svg width="146px" height="63px" viewBox="0 0 146 63" version="1.1" xmlns="http://www.w3.org/2000/svg" xmlns:xlink="http://www.w3.org/1999/xlink">
    <!-- Generator: Sketch 48.2 (47327) - http://www.bohemiancoding.com/sketch -->
    <title>Group</title>
    <desc>Created with Sketch.</desc>
    <defs></defs>
    <g id="Headers/Header-(992)" stroke="none" stroke-width="1" fill="none" fill-rule="evenodd" transform="translate(-80.000000, -10.000000)">
        <g id="Headers/Header-(1200)-Copy">
            <g id="Group" transform="translate(80.000000, 10.000000)">
                <g id="Branding/Symbol" fill="#5DB8C6">
                    <g id="Group">
                        <path d="M22.6462102,30.1078614 C17.4850184,31.4112465 14.2881909,33.3104885 13.0371883,34.1596889 L13.0371883,28.3636255 C13.0371883,23.3150919 15.3457395,22.7134013 19.5525582,20.9616651 C22.5615741,19.7041152 29.6508576,17.0731775 37.3124425,10.0937339 C37.3124425,12.170483 36.1936335,15.28894 34.8394554,18.3240605 C32.6042555,19.8474543 30.2529832,21.3175126 28.0387408,22.6192309 C25.141767,24.3292988 17.9718777,28.0669471 13.6385078,33.2513195 C18.4442279,29.0094845 27.4575727,24.6676455 33.0371088,22.082543 C31.6232824,24.8543196 30.3432617,27.0627406 30.0724261,27.5677606 C31.9473179,25.5393468 33.5030106,23.4084289 34.7967343,21.2708441 C36.4418994,20.5124807 37.5631266,19.9957935 37.8154229,19.8024525 C36.2436091,22.6300647 34.6395529,25.1043295 33.1805872,27.191079 C30.4835159,28.0361125 27.0634102,28.9911504 22.6462102,30.1078614 M44.9562941,9.03702528 C43.9656484,11.206278 40.9147174,13.951387 37.2052367,16.6589944 C40.8550691,8.46616929 41.0170868,1.13004484 40.5810092,0 C25.2199546,25.8885273 11.5782226,15.3897774 11.5782226,28.39196 L11.5782226,40.4357713 C0.380459556,47.2468749 0,57.2322711 0,57.2322711 C2.21101814,49.7278067 6.83859931,44.9842851 11.5782226,42.0016667 L11.5782226,58.5014882 C11.1348905,57.1714354 9.90968174,56.2138974 8.47247965,56.2138974 C6.65884829,56.2138974 5.19182204,57.7331243 5.19182204,59.6090321 C5.19182204,61.480773 6.65884829,63 8.47247965,63 C10.9833515,63 12.6019167,60.7699115 12.8235828,56.8514227 C13.0017217,53.7346323 13.0371883,52.3320767 13.0371883,50.9578555 L13.0371883,41.1374658 C18.3547554,38.1898488 23.5159472,37.3439819 25.2723484,37.2089765 C23.2410813,42.9067026 13.8239012,47.3168777 13.1548728,47.7052264 C25.4617722,44.0542482 29.5509063,35.6964165 29.5509063,34.3138617 C27.8372262,35.4164054 20.7253731,35.4589071 13.0371883,39.6057383 L13.0371883,34.2996944 C17.2053162,32.2787809 18.8835297,32.4029525 23.7908131,31.4520814 C26.150146,30.9970634 28.7069632,30.5745466 31.0074538,30.1711973 C29.1527135,32.608794 27.8243293,34.1255209 27.6107238,34.5355371 C29.4944822,32.9838089 31.1912351,31.4162467 32.7235521,29.8628517 C34.6919467,29.4995039 36.3427543,29.1486567 37.3084122,28.7953093 C36.3911178,31.2454066 31.9448997,35.6964165 27.8130445,38.4523592 C37.7074111,34.1563554 43.7818671,24.9743244 43.7818671,22.3200524 C42.3051681,23.5075995 40.4867004,24.6809794 36.021943,26.2527084 C43.1346022,17.8065399 45.3504567,10.4454145 44.9562941,9.03702528" id="Fill-1"></path>
                    </g>
                </g>
                <g id="Branding/Company-Name" transform="translate(53.000000, 12.000000)" fill="#FFFFFF">
                    <g id="Group">
                        <g id="Group-2">
                            <path d="M2.94078956,8.47784483 L4.18990359,8.47784483 C5.82955208,8.47784483 8.73769226,8.47784483 8.73769226,5.02060345 C8.73769226,1.51215517 5.82955208,1.38646552 4.18990359,1.38646552 L2.94078956,1.38646552 L2.94078956,8.47784483 Z M1.4397659,0.233534483 L4.74291231,0.233534483 C7.36784048,0.233534483 10.3788313,0.961293103 10.3788313,4.96474138 C10.3788313,9.0287069 7.36784048,9.62767241 4.74291231,9.62767241 L2.94078956,9.62767241 L2.94078956,17.5197414 L1.4397659,17.5197414 L1.4397659,0.233534483 Z" id="Fill-1"></path>
                            <path d="M14.5438366,8.42477586 L15.4814174,8.42477586 C17.6442628,8.42477586 20.2498134,7.76994828 20.2498134,4.86667241 C20.2498134,1.38615517 17.2343507,1.38615517 16.2475805,1.38615517 L14.5438366,1.38615517 L14.5438366,8.42477586 Z M13.0472847,0.233224138 L16.37279,0.233224138 C18.9664158,0.233224138 21.8790277,1.03391379 21.8790277,4.79218966 C21.8790277,7.89563793 19.2868925,8.83132759 18.0362879,8.97874138 L18.0362879,9.02994828 C20.3407393,9.35581034 20.8445586,10.454431 21.3036602,12.8596034 L22.2144104,17.519431 L20.6716502,17.519431 L19.8100894,13.0846034 C19.3793091,10.8532241 18.7994697,9.58081034 15.7199118,9.58081034 L14.5438366,9.58081034 L14.5438366,17.519431 L13.0472847,17.519431 L13.0472847,0.233224138 Z" id="Fill-3"></path>
                            <polygon id="Fill-5" points="25.9997625 0.232758621 33.3602936 0.232758621 33.3602936 1.38568966 27.4873708 1.38568966 27.4873708 7.89517241 33.0681381 7.89517241 33.0681381 9.05431034 27.4873708 9.05431034 27.4873708 16.317931 33.5823914 16.317931 33.5823914 17.5205172 25.9997625 17.5205172"></polygon>
                            <polygon id="Fill-8" points="48.4502768 0.232758621 50.7621811 0.232758621 50.7621811 17.5205172 49.2671198 17.5205172 49.2671198 1.56103448 49.2253833 1.56103448 44.3347591 17.5205172 42.8888872 17.5205172 38.0057159 1.56103448 37.9565264 1.56103448 37.9565264 17.5205172 36.708903 17.5205172 36.708903 0.232758621 38.9194473 0.232758621 43.6386537 15.6413793 43.6833714 15.6413793"></polygon>
                            <polygon id="Fill-11" points="55.019752 17.5206724 56.5163039 17.5206724 56.5163039 0.232913793 55.019752 0.232913793"></polygon>
                            <polygon id="Fill-13" points="60.8015998 0.232758621 68.1666027 0.232758621 68.1666027 1.38568966 62.2892081 1.38568966 62.2892081 7.89517241 67.8759377 7.89517241 67.8759377 9.05431034 62.2892081 9.05431034 62.2892081 16.317931 68.3812475 16.317931 68.3812475 17.5205172 60.8015998 17.5205172"></polygon>
                            <path d="M72.9999883,8.42477586 L73.9405503,8.42477586 C76.1063769,8.42477586 78.7089462,7.76994828 78.7089462,4.86667241 C78.7089462,1.38615517 75.7024271,1.38615517 74.7141662,1.38615517 L72.9999883,1.38615517 L72.9999883,8.42477586 Z M71.5093987,0.233224138 L74.834904,0.233224138 C77.4374733,0.233224138 80.3456135,1.03391379 80.3456135,4.79218966 C80.3456135,7.89563793 77.7415536,8.83132759 76.4939301,8.97874138 L76.4939301,9.02994828 C78.8058345,9.35581034 79.3066726,10.454431 79.7687554,12.8596034 L80.6795056,17.519431 L79.1412172,17.519431 L78.2781658,13.0846034 C77.8429137,10.8532241 77.2586026,9.58081034 74.1820258,9.58081034 L72.9999883,9.58081034 L72.9999883,17.519431 L71.5093987,17.519431 L71.5093987,0.233224138 Z" id="Fill-14"></path>
                            <polygon id="Fill-15" points="84.4559141 0.232758621 91.8238982 0.232758621 91.8238982 1.38568966 85.952466 1.38568966 85.952466 7.89517241 91.5332333 7.89517241 91.5332333 9.05431034 85.952466 9.05431034 85.952466 16.317931 92.0459961 16.317931 92.0459961 17.5205172 84.4559141 17.5205172"></polygon>
                            <path d="M2.60883527,27.1849655 L3.51213253,27.1849655 C4.59280994,27.1849655 5.83894279,26.9615172 5.83894279,25.1522069 C5.83894279,23.4872069 4.59280994,23.2032414 3.51213253,23.2032414 L2.60883527,23.2032414 L2.60883527,27.1849655 Z M1.42530718,22.3885862 L3.52107607,22.3885862 C5.15178102,22.3885862 7.10296272,22.7703103 7.10296272,25.1956552 C7.10296272,27.683069 5.15178102,28.0337586 3.52107607,28.0337586 L2.60883527,28.0337586 L2.60883527,32.6361724 L1.42530718,32.6361724 L1.42530718,22.3885862 Z" id="Fill-16"></path>
                            <polygon id="Fill-17" points="8.50858865 22.3888966 13.2605881 22.3888966 13.2605881 23.202 9.69062615 23.202 9.69062615 26.8563103 13.0742644 26.8563103 13.0742644 27.7004483 9.69062615 27.7004483 9.69062615 31.7613103 13.4036847 31.7613103 13.4036847 32.6364828 8.50858865 32.6364828"></polygon>
                            <path d="M16.2293953,27.1849655 L16.8867452,27.1849655 C17.7691743,27.1849655 19.3730486,26.8761724 19.3730486,25.1025517 C19.3730486,23.4422069 18.0985945,23.2032414 17.2742985,23.2032414 L16.2293953,23.2032414 L16.2293953,27.1849655 Z M15.0458672,22.3885862 L17.2161655,22.3885862 C18.8677387,22.3885862 20.6370685,22.8882414 20.6370685,25.0885862 C20.6370685,26.8203103 19.1673472,27.4503103 18.4295054,27.5247931 L18.4295054,27.5573793 C19.9677938,27.8103103 20.1421928,28.8034138 20.3836683,30.051 L20.8964311,32.6361724 L19.6830912,32.6361724 L19.2865944,30.5382414 C18.9079847,28.5985862 18.5412996,28.0027241 16.7674981,28.0027241 L16.2293953,28.0027241 L16.2293953,32.6361724 L15.0458672,32.6361724 L15.0458672,22.3885862 Z" id="Fill-18"></path>
                            <polygon id="Fill-19" points="22.6517493 22.3888966 27.4171641 22.3888966 27.4171641 23.202 23.8397492 23.202 23.8397492 26.8563103 27.2338216 26.8563103 27.2338216 27.7004483 23.8397492 27.7004483 23.8397492 32.6364828 22.6517493 32.6364828"></polygon>
                            <path d="M31.7874235,32.0325517 C33.7863041,32.0325517 34.1828009,29.4768621 34.1828009,27.683069 C34.1828009,25.4951379 33.7863041,22.9968621 31.7874235,22.9968621 C29.8019583,22.9968621 29.4442168,25.4951379 29.4442168,27.683069 C29.4442168,29.4768621 29.8019583,32.0325517 31.7874235,32.0325517 M28.1772157,27.5884138 C28.1772157,24.7937586 29.1908166,22.2194483 31.8723871,22.2194483 C34.5658824,22.2194483 35.4527832,24.7937586 35.4527832,27.5884138 C35.4527832,30.2713448 34.5658824,32.8053103 31.8723871,32.8053103 C29.1908166,32.8053103 28.1772157,30.2713448 28.1772157,27.5884138" id="Fill-20"></path>
                            <path d="M38.5038709,27.1849655 L39.1642021,27.1849655 C40.0481217,27.1849655 41.6490148,26.8761724 41.6490148,25.1025517 C41.6490148,23.4422069 40.3790325,23.2032414 39.5443024,23.2032414 L38.5038709,23.2032414 L38.5038709,27.1849655 Z M37.323324,22.3885862 L39.4966035,22.3885862 C41.1496673,22.3885862 42.9204877,22.8882414 42.9204877,25.0885862 C42.9204877,26.8203103 41.4477852,27.4503103 40.7054717,27.5247931 L40.7054717,27.5573793 C42.251213,27.8103103 42.418159,28.8034138 42.6611251,30.051 L43.1813409,32.6361724 L41.9635292,32.6361724 L41.5640512,30.5382414 C41.1914038,28.5985862 40.8187565,28.0027241 39.0479361,28.0027241 L38.5038709,28.0027241 L38.5038709,32.6361724 L37.323324,32.6361724 L37.323324,22.3885862 Z" id="Fill-21"></path>
                            <polygon id="Fill-22" points="44.9335289 22.3888966 46.6014986 22.3888966 49.4097692 31.1856207 49.4440528 31.1856207 52.2135682 22.3888966 53.8785567 22.3888966 53.8785567 32.6364828 52.7829734 32.6364828 52.7829734 23.4238966 52.7546522 23.4238966 49.8405496 32.6364828 48.8165146 32.6364828 45.8994309 23.4875172 45.8711097 23.4875172 45.8711097 32.6364828 44.9335289 32.6364828"></polygon>
                            <path d="M57.4680453,28.5850862 L60.5908304,28.5850862 L59.052542,23.540431 L59.0227302,23.540431 L57.4680453,28.5850862 Z M58.460778,22.3890517 L59.7590814,22.3890517 L63.0860773,32.6350862 L61.866775,32.6350862 L60.8472118,29.4012931 L57.2235886,29.4012931 L56.2189313,32.6350862 L55.1531598,32.6350862 L58.460778,22.3890517 Z" id="Fill-23"></path>
                            <polygon id="Fill-24" points="64.372307 22.3888966 65.7853859 22.3888966 69.8591671 31.0661379 69.8830165 31.0661379 69.8830165 22.3888966 70.9353727 22.3888966 70.9353727 32.6364828 69.5565774 32.6364828 65.4589468 23.9018276 65.4276444 23.9018276 65.4276444 32.6364828 64.372307 32.6364828"></polygon>
                            <path d="M79.1893632,32.1326379 C78.7138651,32.4135 77.8761538,32.8060862 76.7790799,32.8060862 C73.7338055,32.8060862 72.8081494,30.0378103 72.8081494,27.3160862 C72.8081494,25.3702241 73.4625182,22.2186724 76.4794714,22.2186724 C78.4872955,22.2186724 79.5769165,23.6028103 79.5769165,25.1669483 L78.1757623,25.1669483 C78.1757623,24.2281552 77.8060961,22.9960862 76.397489,22.9960862 C74.3687966,22.9960862 74.0781317,25.6402241 74.0781317,27.1376379 C74.0781317,29.5785 74.7623123,31.9293621 76.9087612,31.9293621 C78.1355164,31.9293621 78.6616945,31.3893621 79.1893632,30.9766034 L79.1893632,32.1326379 Z" id="Fill-25"></path>
                            <polygon id="Fill-26" points="80.9041374 22.3888966 85.6561368 22.3888966 85.6561368 23.202 82.0831937 23.202 82.0831937 26.8563103 85.4683226 26.8563103 85.4683226 27.7004483 82.0831937 27.7004483 82.0831937 31.7613103 85.7977428 31.7613103 85.7977428 32.6364828 80.9041374 32.6364828"></polygon>
                            <path d="M92.007837,23.6631724 C91.5606601,23.4505862 90.6081734,23.040931 89.6512149,23.040931 C88.6212175,23.040931 87.9236216,23.6631724 87.9236216,24.5367931 C87.9236216,26.0264483 89.7481032,26.4423103 91.0478973,27.3283448 C92.1181406,28.0793793 92.6458093,28.5511034 92.6458093,29.8902414 C92.6458093,31.9074828 91.1075209,32.805931 89.1697545,32.805931 C88.0070946,32.805931 87.1201939,32.5685172 86.8816996,32.4862759 L86.8816996,31.2123103 C87.3959529,31.4621379 88.3946479,31.9292069 89.353097,31.9292069 C90.5932675,31.9292069 91.3817894,31.3023103 91.3817894,30.1292069 C91.3817894,28.6845517 89.8792751,28.1817931 88.4214785,27.3469655 C87.5539554,26.8566207 86.7803395,26.1567931 86.7803395,24.8098966 C86.7803395,23.1588621 87.9936793,22.2185172 89.8792751,22.2185172 C90.6499099,22.2185172 91.6113401,22.3892069 92.007837,22.4761034 L92.007837,23.6631724 Z" id="Fill-27"></path>
                            <path d="M10.9366099,48.1574483 C10.1987681,47.6748621 9.45645454,47.2698621 8.70072564,46.9471034 C8.73948097,47.2822759 8.79761396,47.5476207 8.86618108,47.7508966 C8.97946589,48.1962414 9.17324252,48.5996897 9.45347336,48.9596897 C9.62936292,49.1815862 9.82761133,49.2902069 10.0511998,49.2902069 C10.2867129,49.2902069 10.587812,48.9084828 10.9366099,48.1574483 Z M1.71582308,38.9588276 L8.5635914,38.9588276 C8.5635914,39.4507241 8.57253494,39.8821034 8.5934032,40.2576207 C8.82891634,40.3305517 9.05399536,40.4050345 9.26864025,40.4717586 C9.6755712,40.0574483 9.99753854,39.6555517 10.2360329,39.2583103 L11.1080277,39.8262414 C10.9097793,40.1071034 10.6220956,40.4329655 10.2360329,40.8115862 C10.6593603,40.9698621 11.0618195,41.1374483 11.4389386,41.3127931 L10.7651921,42.3927931 C10.0765398,42.0033103 9.38192506,41.6852069 8.67985739,41.4322759 C8.70966918,41.679 8.75438687,41.8776207 8.79910455,42.039 C8.89897405,42.4129655 9.05846713,42.7512414 9.28056497,43.046069 C9.42813333,43.2353793 9.589117,43.3284828 9.75904421,43.3284828 C10.104861,43.3284828 10.5729061,42.9824483 11.1557266,42.3012414 L11.9636261,43.1671034 C11.5015434,43.7567586 11.1110089,44.1198621 10.7964945,44.2750345 C10.4432248,44.4674483 10.1421257,44.5667586 9.90810317,44.5667586 C9.49670045,44.5667586 9.13150602,44.4193448 8.81102927,44.1322759 C8.37428653,43.7396897 8.03443212,43.2027931 7.80637192,42.5122759 C7.61408587,41.921069 7.51570696,41.1452069 7.51570696,40.1784828 L1.71582308,40.1784828 L1.71582308,38.9588276 Z M4.01580274,40.6021034 L4.59266088,41.4152069 C4.23790058,41.679 3.920405,41.8946897 3.62377769,42.0576207 L3.62377769,44.0376207 L5.06964954,44.0376207 L5.06964954,40.4950345 L6.21293171,40.4950345 L6.21293171,44.0376207 L8.5635914,44.0376207 C8.5635914,44.6893448 8.58147848,45.2603793 8.60085614,45.7522759 C8.85723754,45.8329655 9.10467541,45.9276207 9.34167914,46.0253793 C9.84847958,45.5583103 10.246467,45.1067586 10.529679,44.6583103 L11.4851469,45.2743448 C11.2332373,45.6033103 10.8531369,45.9943448 10.3463365,46.4552069 C10.8427028,46.6879655 11.3182009,46.9253793 11.7668683,47.186069 L11.1631796,48.1683103 L11.8190389,48.879 C11.4508633,49.5741724 11.1467831,50.0148621 10.9097793,50.1964138 C10.613152,50.4152069 10.3791295,50.5284828 10.1987681,50.5284828 C9.74413832,50.5284828 9.32528266,50.3515862 8.96008822,50.0008966 C8.47117485,49.5322759 8.09256511,48.879 7.84214607,48.0379655 C7.62452,47.3365862 7.51570696,46.404 7.51570696,45.2200345 L6.21293171,45.2200345 L6.21293171,50.5284828 L5.06964954,50.5284828 L5.06964954,45.2200345 L3.59992825,45.2200345 C3.54328585,46.2022759 3.39273631,47.0324483 3.14827963,47.7074483 C2.84568995,48.5795172 2.25392591,49.4671034 1.38193103,50.3717586 L0.423481957,49.446931 C1.19560734,48.7703793 1.73818193,48.0457241 2.05716809,47.2776207 C2.27479416,46.7841724 2.4119284,46.0998621 2.45813667,45.2200345 L0.60682447,45.2200345 L0.60682447,44.0376207 L2.48496728,44.0376207 L2.48496728,42.5867586 C2.06611162,42.7574483 1.58912297,42.9126207 1.03760485,43.0646897 L0.471180822,41.9831379 C1.2582121,41.8171034 1.94835505,41.6153793 2.54608145,41.3888276 C3.0946184,41.1731379 3.58353177,40.9124483 4.01580274,40.6021034 Z" id="Fill-28"></path>
                            <path d="M24.8308422,40.0866207 C25.2541696,40.3178276 25.6402323,40.5847241 25.9815773,40.905931 L25.5060792,41.6786897 C25.161753,41.2845517 24.8084833,40.9757586 24.4447795,40.7445517 L24.8308422,40.0866207 Z M24.3985712,38.8514483 L27.4706762,38.8514483 L27.4706762,43.470931 L26.5107366,43.470931 L26.5107366,39.7731724 L24.3985712,39.7731724 L24.3985712,38.8514483 Z M22.2938588,49.1843793 L24.3001923,49.1843793 L24.3001923,48.3697241 L22.2938588,48.3697241 L22.2938588,49.1843793 Z M22.2938588,47.4867931 L24.3001923,47.4867931 L24.3001923,46.7202414 L22.2938588,46.7202414 L22.2938588,47.4867931 Z M22.2938588,45.8419655 L24.3001923,45.8419655 L24.3001923,45.1654138 L22.2938588,45.1654138 L22.2938588,45.8419655 Z M21.4352792,40.0866207 C21.864569,40.3023103 22.2670282,40.5567931 22.6366944,40.850069 L22.155234,41.6274828 C21.8004736,41.255069 21.4278263,40.9586897 21.0536883,40.7445517 L21.4352792,40.0866207 Z M20.9076105,38.8514483 L24.0691509,38.8514483 L24.0691509,43.4305862 L23.1121924,43.4305862 L23.1121924,39.7731724 L20.9076105,39.7731724 L20.9076105,38.8514483 Z M22.7738286,41.3621379 L22.9661147,42.2481724 C22.4935978,42.7819655 21.9003431,43.2614483 21.2027472,43.6804138 L20.8569305,42.7602414 C21.4770157,42.4607586 22.1194598,41.9967931 22.7738286,41.3621379 Z M18.167907,42.0898966 L19.6182506,42.0898966 L19.6182506,39.9857586 L18.167907,39.9857586 L18.167907,42.0898966 Z M17.2169108,39.0112759 L20.5766996,39.0112759 L20.5766996,43.0643793 L19.7032142,43.0643793 L19.7032142,45.0769655 L20.5230384,45.0769655 L20.5230384,45.7364483 C21.2683332,45.0319655 21.8168701,44.2095517 22.155234,43.2723103 L23.0123229,43.578 C22.9124534,43.8231724 22.8200369,44.0481724 22.7201674,44.253 L24.4745913,44.253 C24.3657782,44.0124828 24.2495123,43.7704138 24.1153592,43.5221379 L24.6445185,43.2986897 L24.3493818,42.4964483 C24.9247493,42.2761034 25.5165134,41.9331724 26.1291457,41.4707586 L26.3288847,42.3505862 C25.9621996,42.6842069 25.5254569,42.9883448 25.0261094,43.2614483 C25.1721872,43.5438621 25.3033591,43.8728276 25.4211156,44.253 L27.6614717,44.253 L27.6614717,45.1654138 L25.2720567,45.1654138 L25.2720567,45.8419655 L27.4706762,45.8419655 L27.4706762,46.7202414 L25.2720567,46.7202414 L25.2720567,47.4883448 L27.4706762,47.4883448 L27.4706762,48.3697241 L25.2720567,48.3697241 L25.2720567,49.1843793 L27.8567389,49.1843793 L27.8567389,50.103 L22.2938588,50.103 L22.2938588,50.5778276 L21.3324285,50.5778276 L21.3324285,46.3121379 C21.0849907,46.593 20.7913445,46.8862759 20.4768301,47.1857586 L20.266657,46.1554138 L19.7032142,46.1554138 L19.7032142,48.6319655 C20.0490309,48.5233448 20.3844136,48.3945517 20.7212868,48.2642069 L20.7212868,49.2914483 C19.6182506,49.7181724 18.3229283,50.1464483 16.8353199,50.5778276 L16.5998068,49.3907586 C16.7652622,49.3643793 16.9217741,49.338 17.0797766,49.3038621 L17.0797766,44.0373103 L17.9845644,44.0373103 L17.9845644,49.1145517 C18.2469082,49.0524828 18.5032896,48.9888621 18.7447651,48.9221379 L18.7447651,43.0643793 L17.2169108,43.0643793 L17.2169108,39.0112759 Z" id="Fill-29"></path>
                            <path d="M41.004633,48.369569 C42.1225751,48.6923276 43.1451195,49.0818103 44.0707756,49.5411207 L43.4059727,50.6180172 C42.4475236,50.0562931 41.4473381,49.6109483 40.4277748,49.2912931 L41.004633,48.369569 Z M40.0968639,47.1856034 L42.3059176,47.1856034 L42.3059176,46.1552586 L40.0968639,46.1552586 L40.0968639,47.1856034 Z M40.0968639,45.1668103 L42.3059176,45.1668103 L42.3059176,44.2528448 L40.0968639,44.2528448 L40.0968639,45.1668103 Z M36.9800412,47.1856034 L38.9923371,47.1856034 L38.9923371,46.1552586 L36.9800412,46.1552586 L36.9800412,47.1856034 Z M36.9815318,45.1668103 L38.9938277,45.1668103 L38.9938277,44.2528448 L36.9815318,44.2528448 L36.9815318,45.1668103 Z M36.5537326,41.3619828 L42.7337168,41.3619828 L42.7337168,40.4930172 L36.5537326,40.4930172 L36.5537326,41.3619828 Z M39.9135214,38.4975 C40.0029568,38.7752586 40.0938828,39.0840517 40.1684122,39.4161207 L43.8397343,39.4161207 L43.8397343,41.9826724 L43.0690995,41.9826724 L43.0690995,42.3923276 L40.0968639,42.3923276 L40.0968639,43.2225 L43.4059727,43.2225 L43.4059727,48.2081897 L35.8799862,48.2081897 L35.8799862,43.2225 L38.9923371,43.2225 L38.9923371,42.3923276 L36.2213312,42.3923276 L36.2213312,41.9314655 L35.4492058,41.9314655 L35.4492058,39.4161207 L38.9207888,39.4161207 C38.832844,39.1631897 38.7314839,38.9211207 38.6137274,38.6899138 L39.9135214,38.4975 Z M38.1874188,48.369569 L38.9476194,49.0787069 C38.1024552,49.6466379 37.0486084,50.1618103 35.793532,50.6180172 L35.0691054,49.5907759 C36.2302747,49.2540517 37.2662344,48.8521552 38.1874188,48.369569 Z M33.6321771,38.8016379 C34.253753,39.1119828 34.8291205,39.4906034 35.3538081,39.9312931 L34.6383251,41.169569 C34.1076752,40.5969828 33.5665912,40.1516379 33.0106013,39.8257759 L33.6321771,38.8016379 Z M34.4922473,44.8673276 L35.4998858,45.6447414 C34.9990477,47.5812931 34.4281519,49.2742241 33.7857079,50.7250862 L32.8615423,49.5907759 C33.3862299,48.4828448 33.930295,46.9109483 34.4922473,44.8673276 Z M33.2923227,41.8243966 C33.9720316,42.1735345 34.595098,42.5862931 35.1704655,43.0642241 L34.4430578,44.2993966 C33.8736526,43.6942241 33.2833792,43.2209483 32.6752187,42.8656034 L33.2923227,41.8243966 Z" id="Fill-30"></path>
                            <path d="M52.4548946,44.814569 L56.789529,44.814569 C56.5659405,44.5228448 56.3721639,44.2156034 56.1992555,43.8928448 L53.0734893,43.8928448 C52.8767314,44.2326724 52.6725207,44.5414655 52.4548946,44.814569 Z M49.5139615,39.3633621 L53.6235168,39.3633621 C53.6801592,39.0747414 53.735311,38.7876724 53.7859911,38.4975 L54.9352356,38.5906034 C54.8800838,38.8606034 54.8264226,39.1181897 54.766799,39.3633621 L59.4412878,39.3633621 L59.4412878,40.3937069 L54.4940211,40.3937069 C54.4209822,40.6606034 54.3434715,40.9228448 54.2629797,41.169569 L59.0060356,41.169569 L59.0060356,42.1409483 L53.9186535,42.1409483 C53.818784,42.3938793 53.7233863,42.6235345 53.6235168,42.8407759 C53.6130827,42.845431 53.6101015,42.8578448 53.6101015,42.8578448 L59.9689564,42.8656034 L59.9689564,43.8928448 L57.414086,43.8928448 C57.6853733,44.2435345 57.9939253,44.5693966 58.3322891,44.8673276 C58.7749942,45.2428448 59.3980607,45.6587069 60.1985072,46.1040517 L59.4412878,47.1312931 C58.5364999,46.5509483 57.8165452,45.9690517 57.2769517,45.3793966 C57.189007,45.2940517 57.1129869,45.2071552 57.0429292,45.1311207 L57.0429292,45.7362931 L55.0261615,45.7362931 L55.0261615,45.8914655 C55.0261615,46.1490517 55.0112557,46.3880172 54.9859156,46.614569 L58.4813481,46.614569 L58.4813481,47.6433621 L54.7995919,47.6433621 C54.7608366,47.7923276 54.7161189,47.9335345 54.6684201,48.0638793 C56.2514261,48.3975 57.889584,48.875431 59.5814032,49.4992241 L59.146151,50.6180172 C57.5288614,49.9321552 55.848967,49.4076724 54.101996,49.0399138 C54.0647313,49.0988793 54.0200136,49.1485345 53.9812583,49.1935345 C53.259813,49.9569828 51.8839988,50.4349138 49.86425,50.6180172 L49.3276378,49.4464655 C51.2519888,49.359569 52.51899,49.0181897 53.1226787,48.4223276 C53.3403048,48.1973276 53.510232,47.9443966 53.6235168,47.6433621 L50.6676778,47.6433621 L50.6676778,46.614569 L53.88437,46.614569 C53.90971,46.3880172 53.9305782,46.1490517 53.9305782,45.8914655 L53.9305782,45.7362931 L52.1031155,45.7362931 L52.1031155,45.2350862 C51.3518583,46.0249138 50.4440893,46.6937069 49.381299,47.2352586 L48.7537608,46.1040517 C49.8806465,45.6059483 50.7287919,45.0380172 51.3190654,44.4049138 C51.4711055,44.2528448 51.6201645,44.0759483 51.7602799,43.8928448 L49.0369728,43.8928448 L49.0369728,42.8656034 L52.4057051,42.8656034 C52.5428394,42.6235345 52.6591054,42.384569 52.7679184,42.1409483 L49.9074771,42.1409483 L49.9074771,41.169569 L53.1450376,41.169569 C53.2300012,40.9135345 53.3045306,40.6543966 53.3745883,40.3937069 L49.5139615,40.3937069 L49.5139615,39.3633621 Z" id="Fill-31"></path>
                            <path d="M71.1163303,44.7054828 L73.9931681,44.7054828 C73.49233,44.4556552 73.0898708,44.2027241 72.7664129,43.9606552 C72.268556,43.6177241 71.7543026,43.0792759 71.2236527,42.3499655 L71.1163303,42.3499655 L71.1163303,44.7054828 Z M67.6581626,48.9354828 L73.550463,48.9354828 L73.550463,47.8554828 L67.6581626,47.8554828 L67.6581626,48.9354828 Z M67.6581626,46.7599655 L73.550463,46.7599655 L73.550463,45.8413448 L67.6581626,45.8413448 L67.6581626,46.7599655 Z M67.2005516,44.7054828 L69.9611234,44.7054828 L69.9611234,42.3499655 L69.8582727,42.3499655 C69.5035124,42.8946207 69.1040344,43.3570345 68.6508952,43.7341034 C68.2543984,44.0568621 67.772938,44.3858276 67.2005516,44.7054828 Z M74.6102721,38.5916897 L75.1826585,39.6670345 C74.0125457,39.8796207 72.6561093,40.0363448 71.1163303,40.1403103 L71.1163303,41.273069 L76.1888065,41.273069 L76.1888065,42.3499655 L72.4727668,42.3499655 C72.9273966,42.7751379 73.3328369,43.0792759 73.7114467,43.2716897 C74.316626,43.6223793 75.1573185,43.9668621 76.2379959,44.298931 L75.7118178,45.486 C75.3257551,45.3370345 74.973976,45.188069 74.6534992,45.0375517 L74.6534992,50.6191034 L73.550463,50.6191034 L73.550463,50.0154828 L67.6581626,50.0154828 L67.6581626,50.6191034 L66.5506545,50.6191034 L66.5506545,45.063931 C66.233159,45.2206552 65.8962857,45.3804828 65.5445066,45.5356552 L64.8797037,44.3516897 C66.2435931,43.8737586 67.2124763,43.4284138 67.7774097,43.0218621 C68.0621123,42.8325517 68.3289279,42.6044483 68.5704034,42.3499655 L65.0153473,42.3499655 L65.0153473,41.273069 L69.9611234,41.273069 L69.9611234,40.2101379 C68.756727,40.2597931 67.4628953,40.2877241 66.0736659,40.2877241 L65.7442456,39.1549655 C69.2203004,39.1549655 72.1791206,38.9672069 74.6102721,38.5916897 Z" id="Fill-32"></path>
                            <path d="M86.7096855,42.3001552 L88.9560039,42.3001552 L88.9560039,41.0091207 L86.7096855,41.0091207 L86.7096855,42.3001552 Z M86.2341875,46.812569 L89.0558734,46.812569 L89.0558734,45.5355 L86.2341875,45.5355 L86.2341875,46.812569 Z M86.2058663,44.5144655 L89.4478985,44.5144655 C89.1930077,44.2103276 88.9425886,43.8286034 88.6847167,43.3832586 L86.8572539,43.3832586 C86.6604961,43.8130862 86.4458512,44.1886034 86.2058663,44.5144655 Z M82.1604063,38.6396379 C82.8371339,38.9717069 83.4616909,39.3736034 84.0266244,39.8267069 L83.3021978,41.0091207 C82.7327926,40.4210172 82.1410286,39.9617069 81.5343587,39.6265345 L82.1604063,38.6396379 Z M82.7283209,44.9148103 L83.3021978,45.3803276 C84.1712115,44.9039483 84.7808627,44.472569 85.1386041,44.0768793 C85.3383431,43.8736034 85.5172139,43.6423966 85.6781976,43.3832586 L83.7806771,43.3832586 L83.7806771,42.3001552 L85.5559692,42.3001552 L85.5559692,41.0091207 L84.0743232,41.0091207 L84.0743232,39.9322241 L85.5559692,39.9322241 L85.5559692,38.5915345 L86.7096855,38.5915345 L86.7096855,39.9322241 L88.9560039,39.9322241 L88.9560039,38.5915345 L90.0545684,38.5915345 L90.0545684,39.9322241 L91.9178054,39.9322241 L91.9178054,41.0091207 L90.0545684,41.0091207 L90.0545684,42.3001552 L92.220395,42.3001552 L92.220395,43.3832586 L89.9233966,43.3832586 C90.2006462,43.7572241 90.4585182,44.0318793 90.7119184,44.2103276 C91.1009623,44.5423966 91.6554616,44.8620517 92.3649822,45.1661897 L91.8745783,46.3036034 C91.1426988,45.9094655 90.5747842,45.5494655 90.1559285,45.2065345 L90.1559285,47.8537759 L86.2341875,47.8537759 L86.2341875,48.8251552 C86.2341875,49.0982586 86.3772841,49.2317069 86.6604961,49.2317069 L90.0545684,49.2317069 C90.2915722,49.2317069 90.4689523,49.1820517 90.5747842,49.0687759 C90.6985031,48.9415345 90.7789949,48.3798103 90.8341468,47.3805 L91.8745783,47.7513621 C91.7657652,49.0113621 91.5973286,49.7530862 91.3573437,49.973431 C91.1426988,50.1968793 90.7611079,50.3148103 90.2021368,50.3148103 L86.2341875,50.3148103 C85.8898613,50.3148103 85.6200646,50.2139483 85.4233068,50.0153276 C85.2280395,49.8027414 85.12817,49.5249828 85.12817,49.1851552 L85.12817,45.6270517 C84.7555226,45.9358448 84.3143081,46.2508448 83.8328477,46.5627414 L83.5824287,46.1142931 C83.1248177,47.8537759 82.6239796,49.3713621 82.0635179,50.6686034 L81.1453148,49.5917069 C81.649134,48.4946379 82.1797839,46.9413621 82.7283209,44.9148103 Z M81.6700023,41.7353276 C82.3914476,42.0922241 83.0502882,42.5205 83.6495052,43.0092931 L82.9206069,44.1932586 C82.3154276,43.5586034 81.6923611,43.0651552 81.0588606,42.7098103 L81.6700023,41.7353276 Z" id="Fill-33"></path>
                        </g>
                    </g>
                </g>
            </g>
        </g>
    </g>
</svg>